<svg viewBox="0 0 86 36" fill="none" xmlns="http://www.w3.org/2000/svg">
<path d="M0.666 26.719V8.981C0.666 6.30233 1.31933 4.19533 2.626 2.66C3.96533 1.12467 5.92533 0.356999 8.506 0.356999C11.0867 0.356999 13.0467 1.12467 14.386 2.66C15.7253 4.19533 16.395 6.30233 16.395 8.981V26.719C16.395 29.3977 15.7253 31.5047 14.386 33.04C13.0467 34.5753 11.0867 35.343 8.506 35.343C5.958 35.343 4.01433 34.5753 2.675 33.04C1.33567 31.5047 0.666 29.3977 0.666 26.719ZM4.439 8.785V26.915C4.439 30.2143 5.79467 31.864 8.506 31.864C11.2173 31.864 12.573 30.2143 12.573 26.915V8.785C12.573 5.48567 11.2173 3.836 8.506 3.836C5.79467 3.836 4.439 5.48567 4.439 8.785ZM39.5559 7.413L34.1169 34.951H30.4419L24.7579 7.658V35H21.4259V0.699998H26.7669L32.4019 28.091L37.8409 0.699998H43.1819V35H39.5559V7.413ZM55.9924 0.356999C58.573 0.356999 60.5004 1.12467 61.7744 2.66C63.081 4.19533 63.7344 6.30233 63.7344 8.981V12.068H60.1084V8.785C60.1084 5.48567 58.769 3.836 56.0904 3.836C53.4117 3.836 52.0724 5.48567 52.0724 8.785V26.915C52.0724 30.2143 53.4117 31.864 56.0904 31.864C58.769 31.864 60.1084 30.2143 60.1084 26.915V22.456H63.7344V26.719C63.7344 29.3977 63.081 31.5047 61.7744 33.04C60.5004 34.5753 58.573 35.343 55.9924 35.343C53.4444 35.343 51.517 34.5753 50.2104 33.04C48.9364 31.5047 48.2994 29.3977 48.2994 26.719V8.981C48.2994 6.30233 48.9364 4.19533 50.2104 2.66C51.517 1.12467 53.4444 0.356999 55.9924 0.356999ZM81.8586 35L74.5086 20.104L72.4996 23.485V35H68.6776V0.699998H72.4996V17.262L81.6136 0.699998H85.4846L76.8116 16.331L85.7786 35H81.8586Z" fill="white"/>
</svg>
