<svg viewBox="0 0 60 26" fill="none" xmlns="http://www.w3.org/2000/svg">
<path d="M0.156 19.254V6.946C0.156 5.08733 0.609333 3.62533 1.516 2.56C2.44533 1.49467 3.80533 0.961999 5.596 0.961999C7.38667 0.961999 8.74667 1.49467 9.676 2.56C10.6053 3.62533 11.07 5.08733 11.07 6.946V19.254C11.07 21.1127 10.6053 22.5747 9.676 23.64C8.74667 24.7053 7.38667 25.238 5.596 25.238C3.828 25.238 2.47933 24.7053 1.55 23.64C0.620667 22.5747 0.156 21.1127 0.156 19.254ZM2.774 6.81V19.39C2.774 21.6793 3.71467 22.824 5.596 22.824C7.47733 22.824 8.418 21.6793 8.418 19.39V6.81C8.418 4.52067 7.47733 3.376 5.596 3.376C3.71467 3.376 2.774 4.52067 2.774 6.81ZM27.1408 5.858L23.3668 24.966H20.8168L16.8728 6.028V25H14.5608V1.2H18.2668L22.1768 20.206L25.9508 1.2H29.6568V25H27.1408V5.858ZM38.5457 0.961999C40.3364 0.961999 41.6737 1.49467 42.5577 2.56C43.4644 3.62533 43.9177 5.08733 43.9177 6.946V9.088H41.4017V6.81C41.4017 4.52067 40.4724 3.376 38.6137 3.376C36.7551 3.376 35.8257 4.52067 35.8257 6.81V19.39C35.8257 21.6793 36.7551 22.824 38.6137 22.824C40.4724 22.824 41.4017 21.6793 41.4017 19.39V16.296H43.9177V19.254C43.9177 21.1127 43.4644 22.5747 42.5577 23.64C41.6737 24.7053 40.3364 25.238 38.5457 25.238C36.7777 25.238 35.4404 24.7053 34.5337 23.64C33.6497 22.5747 33.2077 21.1127 33.2077 19.254V6.946C33.2077 5.08733 33.6497 3.62533 34.5337 2.56C35.4404 1.49467 36.7777 0.961999 38.5457 0.961999ZM56.4937 25L51.3937 14.664L49.9997 17.01V25H47.3477V1.2H49.9997V12.692L56.3237 1.2H59.0097L52.9917 12.046L59.2137 25H56.4937Z" fill="white"/>
</svg>
