<svg viewBox="0 0 50 21" fill="none" xmlns="http://www.w3.org/2000/svg">
<path d="M0.952 15.268V5.132C0.952 3.60133 1.32533 2.39733 2.072 1.52C2.83733 0.642666 3.95733 0.204 5.432 0.204C6.90667 0.204 8.02667 0.642666 8.792 1.52C9.55733 2.39733 9.94 3.60133 9.94 5.132V15.268C9.94 16.7987 9.55733 18.0027 8.792 18.88C8.02667 19.7573 6.90667 20.196 5.432 20.196C3.976 20.196 2.86533 19.7573 2.1 18.88C1.33467 18.0027 0.952 16.7987 0.952 15.268ZM3.108 5.02V15.38C3.108 17.2653 3.88267 18.208 5.432 18.208C6.98133 18.208 7.756 17.2653 7.756 15.38V5.02C7.756 3.13467 6.98133 2.192 5.432 2.192C3.88267 2.192 3.108 3.13467 3.108 5.02ZM23.1748 4.236L20.0668 19.972H17.9668L14.7188 4.376V20H12.8148V0.399999H15.8668L19.0868 16.052L22.1948 0.399999H25.2468V20H23.1748V4.236ZM32.5671 0.204C34.0417 0.204 35.1431 0.642666 35.8711 1.52C36.6177 2.39733 36.9911 3.60133 36.9911 5.132V6.896H34.9191V5.02C34.9191 3.13467 34.1537 2.192 32.6231 2.192C31.0924 2.192 30.3271 3.13467 30.3271 5.02V15.38C30.3271 17.2653 31.0924 18.208 32.6231 18.208C34.1537 18.208 34.9191 17.2653 34.9191 15.38V12.832H36.9911V15.268C36.9911 16.7987 36.6177 18.0027 35.8711 18.88C35.1431 19.7573 34.0417 20.196 32.5671 20.196C31.1111 20.196 30.0097 19.7573 29.2631 18.88C28.5351 18.0027 28.1711 16.7987 28.1711 15.268V5.132C28.1711 3.60133 28.5351 2.39733 29.2631 1.52C30.0097 0.642666 31.1111 0.204 32.5671 0.204ZM47.3478 20L43.1478 11.488L41.9998 13.42V20H39.8158V0.399999H41.9998V9.864L47.2078 0.399999H49.4198L44.4638 9.332L49.5878 20H47.3478Z" fill="white"/>
</svg>
